<?xml version="1.0" encoding="UTF-8" standalone="no"?> <svg xmlns="http://www.w3.org/2000/svg" version="1.0" width="1920.000000pt" height="1080.000000pt" viewBox="0 0 1920.000000 1080.000000" preserveAspectRatio="xMidYMid meet"><metadata> Created by potrace 1.16, written by Peter Selinger 2001-2019 </metadata><g transform="translate(0.000000,1080.000000) scale(0.100000,-0.100000)" fill="#000000" stroke="none"><path d="M0 5400 l0 -5400 9600 0 9600 0 0 5400 0 5400 -9600 0 -9600 0 0 -5400z m9276 863 c12 -4 0 -10 -37 -20 -82 -20 -172 -68 -232 -123 -84 -76 -125 -168 -142 -317 l-6 -53 270 0 271 0 6 24 c22 88 194 136 416 116 147 -13 204 -39 196 -92 -7 -48 -67 -72 -406 -163 -378 -100 -503 -149 -623 -241 -111 -85 -135 -135 -144 -299 -4 -66 -9 -122 -11 -124 -2 -2 -8 7 -13 20 -5 13 -23 54 -40 92 l-30 67 -346 0 -346 0 -51 -110 -51 -110 -289 0 c-158 0 -288 2 -288 4 0 4 287 543 390 731 15 28 82 154 150 280 67 127 134 249 147 272 l23 42 118 4 c243 6 1051 7 1068 0z m2336 -21 c169 -60 247 -161 248 -318 0 -116 -19 -171 -87 -244 -31 -33 -54 -62 -52 -64 2 -1 27 -13 54 -26 58 -28 133 -101 161 -157 14 -28 20 -66 22 -140 3 -91 1 -108 -19 -150 -36 -74 -112 -144 -194 -178 -66 -27 -81 -29 -275 -36 -113 -4 -368 -8 -567 -8 l-363 -1 0 185 0 185 -377 1 c-208 0 -398 4 -423 7 l-45 7 45 22 c25 12 104 38 175 58 395 109 522 171 602 292 l38 56 0 111 c0 99 -3 117 -27 168 -14 31 -45 75 -69 98 -49 48 -195 122 -284 145 -55 14 1 15 660 11 688 -4 722 -5 777 -24z"></path><path d="M8381 5842 c-32 -62 -148 -317 -156 -341 -6 -21 -5 -21 179 -21 102 0 186 4 186 8 0 12 -169 375 -180 386 -5 5 -17 -9 -29 -32z"></path><path d="M10690 5860 l0 -90 308 0 c169 0 317 3 330 6 26 8 52 51 52 89 0 15 -9 40 -21 56 l-20 29 -325 0 -324 0 0 -90z"></path><path d="M10690 5330 l0 -91 371 3 371 3 24 28 c29 34 31 71 4 115 l-20 32 -375 0 -375 0 0 -90z"></path></g></svg> 