<svg width="114" height="40" viewBox="0 0 114 40" fill="none" xmlns="http://www.w3.org/2000/svg">
<path d="M13.3564 6.85568H28.6975L29.9044 1.34961H9.09204L4.10352 23.9947H24.9158L26.1227 18.4886H10.7817L11.479 15.4117H26.7932L28.0001 9.93261H12.6859L13.3564 6.85568Z" fill="white"/>
<path d="M38.5404 1.32227H33.0959L28.1074 23.9943H49.1075L50.3144 18.4883H34.7588L38.5404 1.32227Z" fill="white"/>
<path d="M52.2988 23.9947H57.6628L62.6514 1.34961H57.2874L52.2988 23.9947Z" fill="white"/>
<path d="M88.3451 1.34961H65.8431L64.6362 6.85568H73.165L69.3834 23.9947H74.8547L78.6095 6.85568H87.1382L88.3451 1.34961Z" fill="white"/>
<path d="M111.142 6.85568L112.349 1.34961H91.5369L86.5483 23.9947H107.387L108.594 18.4886H93.2533L93.9238 15.4117H109.265L110.472 9.93261H95.1307L95.8281 6.85568H111.142Z" fill="white"/>
<path d="M106.61 27.8192H3.32568L3.45978 26.9102H106.717L106.61 27.8192Z" fill="#E0030A"/>
<path d="M3.43306 30.7964C3.19168 30.9043 3.00394 31.0663 2.84302 31.2822C2.6821 31.4981 2.57481 31.714 2.52117 31.9569L1.34109 37.3281C1.28745 37.571 1.28745 37.8139 1.36791 38.0028C1.44837 38.2188 1.55565 38.3807 1.74339 38.4887C1.93113 38.5966 2.14569 38.6776 2.38707 38.6776H9.03844L9.22618 37.7599H2.57482C2.46754 37.7599 2.36026 37.7059 2.30662 37.625C2.25298 37.544 2.22615 37.436 2.25297 37.3281L3.43306 31.9569C3.45988 31.849 3.51352 31.741 3.6208 31.6601C3.72808 31.5791 3.83536 31.5251 3.94264 31.5251H10.594L10.7817 30.6074H4.13038C3.889 30.6074 3.64762 30.6614 3.43306 30.7964Z" fill="white"/>
<path d="M19.9809 30.7964C19.7931 30.6884 19.6054 30.6074 19.3372 30.6074H14.0268C13.7854 30.6074 13.5441 30.6614 13.3027 30.7964C13.0613 30.9043 12.8736 31.0663 12.7126 31.2822C12.5517 31.4981 12.4444 31.714 12.3908 31.9569L11.2107 37.3281C11.1571 37.571 11.1571 37.8139 11.2375 38.0028C11.318 38.2188 11.4253 38.3807 11.613 38.4887C11.8008 38.5966 12.0153 38.6776 12.2567 38.6776H17.5939C17.8353 38.6776 18.0766 38.6236 18.318 38.4887C18.5594 38.3807 18.7471 38.2188 18.9081 38.0028C19.069 37.7869 19.1763 37.571 19.2299 37.3281L20.41 31.9569C20.4636 31.714 20.4636 31.4981 20.3832 31.2822C20.3027 31.0663 20.1686 30.9043 19.9809 30.7964ZM19.4981 31.9569L18.318 37.3281C18.2912 37.436 18.2376 37.544 18.1303 37.625C18.023 37.7059 17.9157 37.7599 17.8084 37.7599H12.4444C12.3372 37.7599 12.2299 37.7059 12.1762 37.625C12.1226 37.544 12.0958 37.436 12.1226 37.3281L13.3027 31.9569C13.3295 31.849 13.3831 31.741 13.4904 31.6601C13.5977 31.5791 13.705 31.5251 13.8123 31.5251H19.1494C19.2567 31.5251 19.364 31.5791 19.4176 31.6601C19.4981 31.741 19.5249 31.849 19.4981 31.9569Z" fill="white"/>
<path d="M26.3107 34.602L23.8701 30.6074H22.6363L20.8662 38.6776H21.7513L23.3068 31.6331L26.0157 36.0325L30.6287 31.6331L29.0731 38.6776H29.985L31.7551 30.6074H30.5214L26.3107 34.602Z" fill="white"/>
<path d="M41.008 30.8237C40.8203 30.6887 40.6325 30.6348 40.3643 30.6348H33.6861L31.916 38.678H32.8279L33.4984 35.682H39.2647C39.5061 35.682 39.7475 35.628 39.9888 35.4931C40.2302 35.3581 40.418 35.1962 40.5789 35.0072C40.7398 34.8183 40.8471 34.5754 40.9007 34.3325L41.4103 31.9573C41.4639 31.7144 41.4639 31.4985 41.3835 31.2825C41.303 31.0936 41.1689 30.9317 41.008 30.8237ZM40.4984 31.9573L39.9888 34.3325C39.962 34.4404 39.9084 34.5484 39.8011 34.6294C39.6938 34.7103 39.5865 34.7643 39.4793 34.7643H34.1421C34.0348 34.7643 33.9275 34.7103 33.8739 34.6294C33.8202 34.5484 33.7934 34.4404 33.8202 34.3325L34.3298 31.9573C34.3566 31.8493 34.4103 31.7414 34.5176 31.6604C34.6248 31.5794 34.7321 31.5255 34.8394 31.5255H40.1766C40.2839 31.5255 40.3911 31.5794 40.4448 31.6604C40.5252 31.7414 40.5252 31.8493 40.4984 31.9573Z" fill="white"/>
<path d="M41.6514 38.6776H48.9732L49.161 37.7869H42.751L43.341 35.1148H48.4905L48.705 34.1972H43.5556L44.1456 31.5251H50.5556L50.7433 30.6074H43.4215L41.6514 38.6776Z" fill="white"/>
<path d="M52.2725 31.5251H55.8395L54.2571 38.6776H55.1422L56.7246 31.5251H60.2916L60.4794 30.6074H52.4602L52.2725 31.5251Z" fill="white"/>
<path d="M60.479 38.6776H61.3909L63.1878 30.6074H62.2759L60.479 38.6776Z" fill="white"/>
<path d="M64.7705 31.5251H68.3376L66.7552 38.6776H67.6671L69.2495 31.5251H72.7897L73.0042 30.6074H64.9851L64.7705 31.5251Z" fill="white"/>
<path d="M73.0039 38.6776H73.9158L75.6859 30.6074H74.774L73.0039 38.6776Z" fill="white"/>
<path d="M84.9925 30.7964C84.8048 30.6884 84.6171 30.6074 84.3489 30.6074H79.0117C78.7703 30.6074 78.5289 30.6614 78.2875 30.7964C78.0462 30.9043 77.8584 31.0663 77.6975 31.2822C77.5366 31.4981 77.4293 31.714 77.3757 31.9569L76.1956 37.3281C76.1419 37.571 76.1419 37.8139 76.2224 38.0028C76.3029 38.2188 76.4101 38.3807 76.5979 38.4887C76.7856 38.5966 77.0002 38.6776 77.2416 38.6776H82.5787C82.8201 38.6776 83.0615 38.6236 83.3029 38.4887C83.5443 38.3807 83.732 38.2188 83.8929 38.0028C84.0538 37.7869 84.1611 37.571 84.2148 37.3281L85.3948 31.9569C85.4485 31.714 85.4485 31.4981 85.368 31.2822C85.2876 31.0663 85.1535 30.9043 84.9925 30.7964ZM84.483 31.9569L83.3029 37.3281C83.2761 37.436 83.2224 37.544 83.1151 37.625C83.0079 37.7059 82.9006 37.7599 82.7933 37.7599H77.4561C77.3488 37.7599 77.2416 37.7059 77.1879 37.625C77.1343 37.544 77.1075 37.436 77.1343 37.3281L78.3144 31.9569C78.3412 31.849 78.3948 31.741 78.5021 31.6601C78.6094 31.5791 78.7167 31.5251 78.8239 31.5251H84.1611C84.2684 31.5251 84.3757 31.5791 84.4293 31.6601C84.5098 31.741 84.5098 31.849 84.483 31.9569Z" fill="white"/>
<path d="M93.1998 37.652L88.8549 30.6074H87.6212L85.8511 38.6776H86.763L88.2917 31.6331L92.6365 38.6776H93.8703L95.6404 30.6074H94.7553L93.1998 37.652Z" fill="white"/>
<path d="M105.242 31.2822C105.161 31.0663 105.054 30.9043 104.866 30.7964C104.678 30.6884 104.464 30.6074 104.222 30.6074H98.8852C98.6438 30.6074 98.4025 30.6614 98.1611 30.7964C97.9197 30.9043 97.732 31.0663 97.571 31.2822C97.4101 31.4981 97.3028 31.714 97.2492 31.9569L96.8469 33.7653C96.7933 34.0082 96.7933 34.2242 96.8737 34.4401C96.9542 34.629 97.0615 34.791 97.2492 34.9259C97.4369 35.0609 97.6247 35.1148 97.8929 35.1148H103.23C103.337 35.1148 103.445 35.1688 103.498 35.2498C103.579 35.3308 103.579 35.4387 103.552 35.5467L103.15 37.3551C103.123 37.463 103.069 37.571 102.962 37.652C102.855 37.7329 102.747 37.7869 102.64 37.7869H97.3028C97.1956 37.7869 97.0883 37.7329 97.0346 37.652C96.981 37.571 96.9542 37.463 96.981 37.3551L97.0615 37.0312H96.1496L96.0691 37.3551C96.0155 37.598 96.0155 37.8409 96.0959 38.0298C96.1764 38.2457 96.2837 38.4077 96.4714 38.5157C96.6592 38.6236 96.8737 38.7046 97.1151 38.7046H102.452C102.694 38.7046 102.935 38.6506 103.176 38.5157C103.418 38.4077 103.606 38.2457 103.766 38.0298C103.927 37.8139 104.035 37.598 104.088 37.3551L104.491 35.5467C104.544 35.3038 104.544 35.0879 104.464 34.8719C104.383 34.683 104.276 34.4941 104.088 34.3861C103.901 34.2511 103.713 34.1972 103.445 34.1972H98.1074C98.0002 34.1972 97.8929 34.1432 97.8392 34.0622C97.7856 33.9812 97.7588 33.8733 97.7856 33.7653L98.1879 31.9569C98.2147 31.849 98.2684 31.741 98.3756 31.6601C98.4829 31.5791 98.5902 31.5251 98.6975 31.5251H104.035C104.142 31.5251 104.249 31.5791 104.303 31.6601C104.356 31.741 104.383 31.849 104.357 31.9569L104.276 32.2808H105.188L105.268 31.9569C105.322 31.714 105.322 31.4981 105.242 31.2822Z" fill="white"/>
</svg>
